<?xml version="1.0" encoding="iso-8859-1"?>
<!-- Generator: Adobe Illustrator 21.0.0, SVG Export Plug-In . SVG Version: 6.00 Build 0)  -->
<svg version="1.1" id="Capa_1" xmlns="http://www.w3.org/2000/svg" xmlns:xlink="http://www.w3.org/1999/xlink" x="0px" y="0px"
	 viewBox="0 0 512 512" style="enable-background:new 0 0 512 512;" xml:space="preserve">
<path style="fill:#FA502E;" d="M419.614,239.364l-15.946-33.35c4.021-0.543,8.03-1.407,11.986-2.595l14.366-4.313L394.529,80.845
	l-14.367,4.312c-10.473,3.143-19.968,8.375-27.854,15.182l-4.042-8.279H256v30h33.91l20.078,142.976
	c-10.442,8.58-19.879,20.124-25.903,31.639h-15.938c-8.995-17.09-21.629-30.741-36.146-39.098v-42.273H59.248v77.495
	c-12.874,18.955-20.457,43.18-20.457,65.838v15H512v-15C512,310.686,480.305,255.595,419.614,239.364z"/>
<path style="fill:#0050C3;" d="M207.272,300.528c-32.043-25.161-78.579-19.559-103.739,12.481
	c-25.159,32.043-19.56,78.58,12.482,103.739c13.505,10.604,29.582,15.742,45.55,15.742c21.92,0,43.633-9.688,58.188-28.225
	c12.188-15.522,17.602-34.861,15.244-54.455C232.641,330.218,222.794,312.715,207.272,300.528z"/>
<path style="fill:#73BCFF;" d="M176.889,339.221c-10.708-8.406-26.257-6.535-34.66,4.17c-4.073,5.187-5.883,11.648-5.095,18.196
	c0.788,6.546,4.077,12.394,9.265,16.467c4.513,3.543,9.884,5.26,15.219,5.26c7.324,0,14.579-3.237,19.442-9.43
	c4.073-5.187,5.882-11.648,5.094-18.195C185.366,349.141,182.075,343.293,176.889,339.221z"/>
<polygon style="fill:#FABE3D;" points="0,79.57 0,215.19 144.862,215.19 144.792,79.57 "/>
<rect x="59.39" y="79.479" style="fill:#FD982C;" width="26.09" height="58.17"/>
<path style="fill:#CB072C;" d="M419.614,239.364l-15.946-33.35c4.021-0.543,8.03-1.407,11.986-2.595l14.366-4.313L394.529,80.845
	l-14.367,4.312c-10.473,3.143-19.968,8.375-27.854,15.182l-4.042-8.279H256v30h33.91l20.078,142.976
	c-10.442,8.58-19.879,20.124-25.903,31.639h-15.938c-3.524-6.695-7.613-12.852-12.147-18.38v95.344h256v-15
	C512,310.686,480.305,255.595,419.614,239.364z"/>
<path style="fill:#0050C3;" d="M389.146,284.754c-40.739,0-73.883,33.145-73.883,73.884s33.144,73.883,73.883,73.883
	s73.884-33.144,73.884-73.883S429.886,284.754,389.146,284.754z"/>
<path style="fill:#0040A0;" d="M389.146,284.754c-40.739,0-73.883,33.145-73.883,73.884s33.144,73.883,73.883,73.883
	s73.884-33.144,73.884-73.883S429.886,284.754,389.146,284.754z"/>
<path style="fill:#73BCFF;" d="M389.146,333.951c-13.612,0-24.687,11.075-24.687,24.688s11.074,24.687,24.687,24.687
	s24.688-11.074,24.688-24.687S402.759,333.951,389.146,333.951z"/>
<path style="fill:#3AAAFF;" d="M389.146,333.951c-13.612,0-24.687,11.075-24.687,24.688s11.074,24.687,24.687,24.687
	s24.688-11.074,24.688-24.687S402.759,333.951,389.146,333.951z"/>
<g>
</g>
<g>
</g>
<g>
</g>
<g>
</g>
<g>
</g>
<g>
</g>
<g>
</g>
<g>
</g>
<g>
</g>
<g>
</g>
<g>
</g>
<g>
</g>
<g>
</g>
<g>
</g>
<g>
</g>
</svg>
