<?xml version="1.0" encoding="iso-8859-1"?>
<!-- Generator: Adobe Illustrator 19.0.0, SVG Export Plug-In . SVG Version: 6.00 Build 0)  -->
<svg version="1.1" id="Capa_1" xmlns="http://www.w3.org/2000/svg" xmlns:xlink="http://www.w3.org/1999/xlink" x="0px" y="0px"
	 viewBox="0 0 512 512" style="enable-background:new 0 0 512 512;" xml:space="preserve">
<circle style="fill:#FFE670;" cx="256" cy="256" r="256"/>
<path style="fill:#FDC000;" d="M512,256c0-17.058-1.684-33.721-4.866-49.845l-70.064-70.062
	c-6.101-6.321-14.645-10.269-24.07-10.269H99c-18.425,0-33.5,15.075-33.5,33.5v193.35c0,9.167,3.735,17.501,9.756,23.564
	l131.323,130.976C222.572,510.344,239.091,512,256,512C397.385,512,512,397.385,512,256z"/>
<path style="fill:#B857CF;" d="M413,386.175H99c-18.425,0-33.5-15.075-33.5-33.5v-193.35c0-18.425,15.075-33.5,33.5-33.5h314
	c18.425,0,33.5,15.075,33.5,33.5v193.35C446.5,371.1,431.425,386.175,413,386.175z"/>
<path style="fill:#9331B2;" d="M446.5,159.33v193.34c0,18.43-15.08,33.5-33.5,33.5H256V125.83h157
	C431.42,125.83,446.5,140.9,446.5,159.33z"/>
<rect x="65.5" y="177.95" style="fill:#3C3B41;" width="381" height="57.02"/>
<rect x="256" y="177.95" style="fill:#171719;" width="190.5" height="57.02"/>
<circle style="fill:#00D9E0;" cx="385.33" cy="327.97" r="30.07"/>
<circle style="fill:#FF623E;" cx="336.86" cy="327.97" r="30.07"/>
<rect x="96.59" y="313.02" style="fill:#FFFFFF;" width="192.41" height="29.898"/>
<rect x="256" y="313.02" style="fill:#FFF5CB;" width="33" height="29.9"/>
<g>
</g>
<g>
</g>
<g>
</g>
<g>
</g>
<g>
</g>
<g>
</g>
<g>
</g>
<g>
</g>
<g>
</g>
<g>
</g>
<g>
</g>
<g>
</g>
<g>
</g>
<g>
</g>
<g>
</g>
</svg>
