<svg viewBox="0 -16 512 512" xmlns="http://www.w3.org/2000/svg"><path d="m89.75 130v60l320 100h72c11.050781 0 20-8.949219 20-20v-140zm0 0" fill="#6accbe"/><path d="m89.75 70h412v60h-412zm0 0" fill="#575972"/><path d="m501.75 30v40h-412v-40c0-11.050781 8.949219-20 20-20h372c11.050781 0 20 8.949219 20 20zm0 0" fill="#6accbe"/><path d="m409.75 450c0 11.050781-8.949219 20-20 20h-360c-11.050781 0-20-8.949219-20-20v-240c0-11.050781 8.949219-20 20-20h360c11.050781 0 20 8.949219 20 20zm0 0" fill="#ff6969"/><path d="m249.75 250h100v60h-100zm0 0" fill="#ffe470"/><path d="m170 260c5.519531 0 10-4.480469 10-10s-4.480469-10-10-10-10 4.480469-10 10 4.480469 10 10 10zm0 0"/><path d="m482 0h-372c-16.542969 0-30 13.457031-30 30v150h-50c-16.542969 0-30 13.457031-30 30v240c0 16.542969 13.457031 30 30 30h360c16.542969 0 30-13.457031 30-30v-150h62c16.542969 0 30-13.457031 30-30v-240c0-16.542969-13.457031-30-30-30zm-382 80h392v40h-392zm10-60h372c5.515625 0 10 4.484375 10 10v30h-392v-30c0-5.515625 4.484375-10 10-10zm290 430c0 5.515625-4.484375 10-10 10h-360c-5.515625 0-10-4.484375-10-10v-240c0-5.515625 4.484375-10 10-10h360c5.515625 0 10 4.484375 10 10zm82-170h-62v-70c0-16.542969-13.457031-30-30-30h-290v-40h392v130c0 5.515625-4.484375 10-10 10zm0 0"/><path d="m350 240h-100c-5.523438 0-10 4.476562-10 10v60c0 5.523438 4.476562 10 10 10h100c5.523438 0 10-4.476562 10-10v-60c0-5.523438-4.476562-10-10-10zm-10 60h-80v-40h80zm0 0"/><path d="m110 400h-40c-5.523438 0-10 4.476562-10 10s4.476562 10 10 10h40c5.523438 0 10-4.476562 10-10s-4.476562-10-10-10zm0 0"/><path d="m190 400h-40c-5.523438 0-10 4.476562-10 10s4.476562 10 10 10h40c5.523438 0 10-4.476562 10-10s-4.476562-10-10-10zm0 0"/><path d="m270 400h-40c-5.523438 0-10 4.476562-10 10s4.476562 10 10 10h40c5.523438 0 10-4.476562 10-10s-4.476562-10-10-10zm0 0"/><path d="m350 400h-40c-5.523438 0-10 4.476562-10 10s4.476562 10 10 10h40c5.523438 0 10-4.476562 10-10s-4.476562-10-10-10zm0 0"/><path d="m70 260h60c5.523438 0 10-4.476562 10-10s-4.476562-10-10-10h-60c-5.523438 0-10 4.476562-10 10s4.476562 10 10 10zm0 0"/><path d="m70 300h100c5.523438 0 10-4.476562 10-10s-4.476562-10-10-10h-100c-5.523438 0-10 4.476562-10 10s4.476562 10 10 10zm0 0"/></svg>